# xmcd
#
# Track frame offsets: 
#        150
#        21618
#        38368
#        55788
#        74946
#        96795
#        117916
#        137124
#        158538
#        172141
#        188386
#        209656
#        231613
#        248145
#        262950
#        280960
#        299812
#        322510
#        337782
#
# Disc length: 4730 seconds
#
# Revision: 2
# Processed by: cddbd v1.5.2PL0 Copyright (c) Steve Scherf et al.
# Submitted via: ExactAudioCopyFreeDBPlugin 1.0
#
DISCID=1e127813
DTITLE=L. J. Reynolds - L. J. Reynolds and Travelin'
DYEAR=1982
DGENRE=Soul
TTITLE0=Key To The World
TTITLE1=Why Do You Do The Things You Do
TTITLE2=Tell Me
TTITLE3=I'm Still In Love With You
TTITLE4=We Can Work It Out
TTITLE5=Ain't No Woman Like My Baby
TTITLE6=Southern Pearl
TTITLE7=Lonely Superstar
TTITLE8=I Love Doing What Makes You Happy
TTITLE9=Words
TTITLE10=Travelin'
TTITLE11=Call Me
TTITLE12=Trust In Me
TTITLE13=You've Got It
TTITLE14=Say You Will
TTITLE15=Special Effects
TTITLE16=You And Me
TTITLE17=Let Me Satisfy You
TTITLE18=Fast Action
EXTD=
EXTT0=
EXTT1=
EXTT2=
EXTT3=
EXTT4=
EXTT5=
EXTT6=
EXTT7=
EXTT8=
EXTT9=
EXTT10=
EXTT11=
EXTT12=
EXTT13=
EXTT14=
EXTT15=
EXTT16=
EXTT17=
EXTT18=
PLAYORDER=
